<?xml version="1.0" standalone="no"?>
<!DOCTYPE svg PUBLIC "-//W3C//DTD SVG 20010904//EN"
 "http://www.w3.org/TR/2001/REC-SVG-20010904/DTD/svg10.dtd">
<svg version="1.0" xmlns="http://www.w3.org/2000/svg"
 width="200.000000pt" height="200.000000pt" viewBox="0 0 200.000000 200.000000"
 preserveAspectRatio="xMidYMid meet">
<metadata>
Created by potrace 1.14, written by Peter Selinger 2001-2017
</metadata>
<g transform="translate(0.000000,200.000000) scale(0.100000,-0.100000)"
fill="#000000" stroke="none">
<path d="M577 1784 c-1 -1 -95 -4 -208 -8 -260 -8 -290 -18 -322 -111 -21 -61
-22 -740 -1 -797 27 -76 72 -101 179 -99 87 1 159 21 163 44 5 23 -33 36 -131
43 -124 9 -117 -9 -117 298 l0 261 343 0 c444 0 504 5 609 49 18 8 23 -7 33
-114 7 -79 33 -207 47 -233 11 -22 12 -22 24 8 10 22 13 98 13 282 0 242 -1
253 -23 294 -15 29 -36 51 -67 67 -43 23 -48 23 -292 20 -137 -1 -249 -3 -250
-4z m514 -121 c7 -7 15 -40 17 -73 l4 -60 -108 -1 c-138 0 -300 -7 -339 -14
-28 -5 -71 -5 -301 -1 -50 1 -120 -1 -155 -4 -35 -4 -66 -6 -68 -4 -5 4 -2
146 3 152 14 14 110 17 502 17 330 0 436 -3 445 -12z"/>
<path d="M1351 1399 c-18 -4 -38 -13 -42 -21 -5 -7 -8 -116 -7 -241 3 -228 3
-229 -20 -247 -27 -23 -22 -24 -202 39 -203 70 -268 86 -307 76 -59 -14 28
-67 272 -165 203 -81 235 -85 301 -35 59 45 65 72 65 292 l0 195 32 -6 c18 -3
77 -37 132 -75 55 -39 141 -98 191 -132 l91 -62 -1 -346 -1 -346 -154 -1
c-261 -2 -371 34 -545 176 -78 64 -172 121 -406 248 -136 73 -150 88 -150 154
0 67 71 128 147 128 26 0 26 1 11 17 -11 11 -35 17 -66 17 -151 3 -225 -207
-111 -313 13 -12 123 -83 244 -156 121 -74 243 -155 270 -181 73 -67 155 -118
237 -148 129 -47 198 -56 388 -53 244 3 256 12 246 192 -3 55 -8 222 -12 370
-5 231 -8 273 -23 294 -21 30 -352 274 -407 300 -53 26 -131 39 -173 30z"/>
<path d="M492 612 c-8 -6 -15 -44 -18 -109 -5 -88 -4 -104 15 -140 27 -54 81
-87 142 -87 26 0 54 6 62 12 11 10 18 8 33 -9 10 -12 32 -28 48 -36 38 -20
128 -13 155 11 12 11 27 15 40 11 29 -9 61 11 61 39 0 13 -17 41 -39 65 l-39
42 -31 -16 c-17 -8 -31 -20 -31 -25 0 -5 -12 -16 -27 -24 -38 -19 -69 -5 -87
39 -17 40 -49 47 -90 20 -40 -26 -66 -26 -92 0 -19 19 -24 35 -24 72 0 31 -8
65 -22 93 -24 47 -35 55 -56 42z"/>
</g>
</svg>
